# xmcd
#
# Track frame offsets:
#	150
#	14764
#	31569
#	61731
#	88400
#	105647
#	120459
#	135599
#	155699
#	181291
#	200948
#	219188
#	235056
#	263414
#	291281
#	312735
#	331866
#
# Disc length: 4546 seconds
#
# Revision: 2
# Processed by: cddbd v1.5.2PL0 Copyright (c) Steve Scherf et al.
# Submitted via: audiograbber 1.83.01
#
DISCID=f111c011
DTITLE=Bernd Haake and Bands - Durch all die Jahre....
DYEAR=2005
DGENRE=Blues
TTITLE0=Soul Limbo
TTITLE1=Walkman Blues
TTITLE2=Die Luft ist raus
TTITLE3=Blues vom Blues
TTITLE4=Was soll's - ein Blues
TTITLE5=Sommer '75
TTITLE6=Recht auf Kontrolle
TTITLE7=Hamburg
TTITLE8=Amerika
TTITLE9=Dampfwalze
TTITLE10=Nägelbrandblues
TTITLE11=Lieber Gott
TTITLE12=Scheiss Montag
TTITLE13=Houston, Texas
TTITLE14=Mama's Blues
TTITLE15=Rote Ratte
TTITLE16=Mitternachtsblues
EXTD=
EXTT0=
EXTT1=
EXTT2=
EXTT3=
EXTT4=
EXTT5=
EXTT6=
EXTT7=
EXTT8=
EXTT9=
EXTT10=
EXTT11=
EXTT12=
EXTT13=
EXTT14=
EXTT15=
EXTT16=
PLAYORDER=
